# xmcd
#
# Track frame offsets:
#	150
#	23594
#	46473
#	69452
#	96171
#	118391
#	135284
#	159371
#	180121
#	205694
#	227286
#	257170
#	280640
#	304479
#	329998
#
# Disc length: 4683 seconds
#
# Revision: 0
# Processed by: cddbd v1.5.2PL0 Copyright (c) Steve Scherf et al.
# Submitted via: EasyCDDAExtractor 15.3.0.1
#
DISCID=c912490f
DTITLE=Duy Quang-Pham Duy - Tinh Khuc Pham Duy-The Best Of Duy Quang
DYEAR=1900
DGENRE=
TTITLE0=chuyen tinh buon
TTITLE1=Goi Em
TTITLE2=Cay dan bo quen
TTITLE3=Dua em tim dong
TTITLE4=Chi chung do thoi
TTITLE5=Duong em di(New)
TTITLE6=Mua xuan yeu em
TTITLE7=Tinh sau
TTITLE8=Tinh que
TTITLE9=Tinh Cam
TTITLE10=VO LUONG HU THANH
TTITLE11=Que Huong
TTITLE12=Hoa kINH
TTITLE13=Toi Chet roi
TTITLE14=Ta on doi
EXTD=
EXTT0=
EXTT1=
EXTT2=
EXTT3=
EXTT4=
EXTT5=
EXTT6=
EXTT7=
EXTT8=
EXTT9=
EXTT10=
EXTT11=
EXTT12=
EXTT13=
EXTT14=
PLAYORDER=
